<?xml version="1.0" standalone="no"?>
<!DOCTYPE svg PUBLIC "-//W3C//DTD SVG 20010904//EN"
 "http://www.w3.org/TR/2001/REC-SVG-20010904/DTD/svg10.dtd">
<svg version="1.0" xmlns="http://www.w3.org/2000/svg"
 width="1280.000000pt" height="1279.000000pt" viewBox="0 0 1280.000000 1279.000000"
 preserveAspectRatio="xMidYMid meet">

<g transform="translate(0.000000,1279.000000) scale(0.100000,-0.100000)"
fill="#000000" stroke="none">
<path d="M6085 12784 c-1109 -70 -2055 -357 -2965 -897 -1264 -751 -2241
-1935 -2738 -3317 -199 -555 -308 -1058 -364 -1680 -19 -216 -16 -819 6 -1045
64 -679 213 -1289 463 -1895 81 -198 277 -594 383 -775 560 -956 1347 -1742
2305 -2305 180 -105 576 -301 775 -383 605 -249 1212 -397 1895 -463 252 -25
847 -25 1100 -1 853 82 1594 294 2335 668 1078 543 1971 1374 2601 2419 114
190 313 581 402 791 246 584 406 1209 472 1841 178 1715 -349 3435 -1457 4758
-865 1032 -2042 1771 -3338 2095 -352 88 -669 141 -1055 175 -121 11 -708 21
-820 14z m650 -4794 c238 -51 476 -154 665 -287 121 -86 325 -290 412 -413 81
-114 185 -319 228 -449 96 -287 115 -619 54 -919 -70 -344 -275 -700 -539
-934 -535 -474 -1287 -579 -1920 -269 -290 142 -511 337 -691 606 -325 488
-379 1119 -142 1659 187 428 574 786 1014 939 221 77 355 97 619 92 156 -3
222 -8 300 -25z m6031 -1827 c-3 -27 -8 -102 -11 -168 -19 -397 -108 -917
-231 -1347 -698 -2443 -2767 -4231 -5289 -4572 -287 -39 -468 -50 -835 -50
-368 0 -480 6 -795 45 -1155 141 -2278 615 -3188 1344 -1367 1095 -2213 2674
-2372 4425 -8 91 -15 200 -15 243 l0 77 633 1 c347 0 1305 4 2127 8 822 4
1496 7 1498 5 2 -1 7 -44 12 -95 39 -383 186 -758 417 -1067 79 -104 247 -277
357 -366 645 -522 1543 -614 2283 -235 328 168 630 447 825 762 165 265 277
597 307 911 6 54 13 101 16 105 6 6 1473 14 3398 19 l868 2 -5 -47z"/>
<path d="M6239 7730 c-627 -72 -1134 -535 -1265 -1153 -49 -234 -33 -520 42
-747 71 -214 193 -409 359 -575 204 -205 438 -333 725 -397 90 -20 132 -23
300 -23 225 0 326 17 510 86 206 78 363 180 525 343 275 277 419 628 418 1021
0 356 -115 666 -350 946 -159 190 -402 354 -643 433 -180 59 -440 87 -621 66z
m463 -104 c255 -59 464 -174 654 -358 250 -243 384 -527 415 -881 32 -373
-104 -759 -370 -1049 -188 -205 -486 -364 -770 -412 -121 -20 -338 -21 -461
-1 -496 81 -931 458 -1083 941 -46 145 -61 246 -61 414 0 232 38 404 133 598
209 426 593 705 1065 772 112 16 359 4 478 -24z"/>
</g>
</svg>
